<svg xmlns="http://www.w3.org/2000/svg" viewBox="-30 -30 60 60" width="60" height="60">
<path d="M 0.9528 -16.02 L -15.06 0 L 0.9528 16.02 L 16.97 0 Z  M -13.22 0 L -9.09 -4.131 A 10 10 0 0 0 -9.141 4.08 Z  M -0.9528 12.27 L -4.091 9.127 A 10 10 0 0 0 1.422 9.893 Z  M 11.31 0 L 9.906 1.409 A 10 10 0 0 0 9.902 -1.412 Z  M -0.9528 -12.27 L 1.415 -9.899 A 10 10 0 0 0 -4.121 -9.101 Z  M 7.518 -2.736 A 8 9 -20 0 1 -7.518 2.736 A 8 9 -20 0 1 7.518 -2.736 Z " transform="matrix(1.0 0.0 0.0 1.0 0.0 0.0)"  /></svg>